<?xml version="1.0" encoding="UTF-8" standalone="no"?>
<!DOCTYPE svg PUBLIC "-//W3C//DTD SVG 1.1//EN" "http://www.w3.org/Graphics/SVG/1.1/DTD/svg11.dtd">
<svg width="100%" height="100%" viewBox="0 0 604 137" version="1.1" xmlns="http://www.w3.org/2000/svg" xmlns:xlink="http://www.w3.org/1999/xlink" xml:space="preserve" xmlns:serif="http://www.serif.com/" style="fill-rule:evenodd;clip-rule:evenodd;stroke-linejoin:round;stroke-miterlimit:2;">
    <g transform="matrix(4.16667,0,0,4.16667,16.5958,136.814)">
        <path d="M0,-7.922C1.121,-7.922 1.958,-7.55 2.675,-6.901C2.73,-6.846 2.74,-6.755 2.685,-6.7L2.507,-6.513C2.442,-6.448 2.388,-6.458 2.323,-6.526C1.693,-7.088 0.901,-7.427 0,-7.427C-1.926,-7.427 -3.435,-5.854 -3.435,-3.951C-3.435,-2.058 -1.926,-0.494 0,-0.494C0.947,-0.494 1.661,-0.869 2.323,-1.418C2.388,-1.473 2.452,-1.473 2.498,-1.441L2.685,-1.254C2.74,-1.212 2.74,-1.121 2.685,-1.066C1.935,-0.342 0.979,0 0,0C-2.2,0 -3.983,-1.738 -3.983,-3.951C-3.983,-6.151 -2.2,-7.922 0,-7.922" style="fill-rule:nonzero;"/>
    </g>
    <g transform="matrix(4.16667,0,0,4.16667,47.7317,119.344)">
        <path d="M0,3.763C0.672,3.763 1.253,3.356 1.464,3.081L1.464,1.87C1.321,1.805 0.882,1.64 0.352,1.64C-0.484,1.64 -1.043,2.07 -1.043,2.72C-1.043,3.356 -0.604,3.763 0,3.763M0.352,1.243C0.859,1.243 1.344,1.398 1.464,1.44C1.464,0.474 1.367,-0.01 0.495,-0.01C-0.229,-0.01 -0.727,0.255 -0.824,0.287C-0.914,0.319 -0.969,0.274 -0.988,0.2L-1.043,0.067C-1.079,-0.033 -1.034,-0.078 -0.979,-0.097C-0.946,-0.12 -0.384,-0.43 0.53,-0.43C1.871,-0.43 1.926,0.374 1.926,1.498L1.926,3.941C1.926,4.018 1.861,4.083 1.784,4.083L1.651,4.083C1.574,4.083 1.541,4.038 1.519,3.964L1.477,3.566C1.189,3.831 0.649,4.193 -0.055,4.193C-0.869,4.193 -1.496,3.631 -1.496,2.729C-1.496,1.883 -0.804,1.243 0.352,1.243" style="fill-rule:nonzero;"/>
    </g>
    <g transform="matrix(4.16667,0,0,4.16667,71.8429,135.294)">
        <path d="M0,-4.003C0,-4.081 0.064,-4.145 0.142,-4.145L0.274,-4.145C0.339,-4.145 0.394,-4.103 0.407,-4.026L0.452,-3.573C0.562,-3.729 1.001,-4.258 1.825,-4.258C2.177,-4.258 2.42,-4.158 2.507,-4.126C2.607,-4.09 2.662,-4.016 2.63,-3.925L2.542,-3.706C2.507,-3.628 2.442,-3.619 2.365,-3.651C2.31,-3.673 2.09,-3.783 1.793,-3.783C0.934,-3.783 0.517,-3.092 0.484,-3.024L0.484,0.113C0.484,0.2 0.439,0.255 0.339,0.255L0.119,0.255C0.045,0.255 0,0.19 0,0.113L0,-4.003Z" style="fill-rule:nonzero;"/>
    </g>
    <g transform="matrix(4.16667,0,0,4.16667,95.9779,123.648)">
        <path d="M0,-1.208C0,-1.286 0.065,-1.35 0.142,-1.35L0.339,-1.35C0.417,-1.35 0.485,-1.286 0.485,-1.208L0.485,2.908C0.485,2.995 0.439,3.05 0.339,3.05L0.12,3.05C0.042,3.05 0,2.985 0,2.908L0,-1.208ZM-0.132,-3.874C-0.132,-4.08 0.032,-4.258 0.243,-4.258C0.453,-4.258 0.617,-4.08 0.617,-3.874C0.617,-3.673 0.453,-3.508 0.243,-3.508C0.032,-3.508 -0.132,-3.673 -0.132,-3.874" style="fill-rule:nonzero;"/>
    </g>
    <g transform="matrix(4.16667,0,0,4.16667,114.22,135.294)">
        <path d="M0,-4.003C0,-4.081 0.064,-4.145 0.155,-4.145L0.265,-4.145C0.339,-4.145 0.384,-4.103 0.394,-4.035L0.439,-3.564C0.582,-3.719 1.189,-4.258 2.067,-4.258C3.302,-4.258 3.841,-3.477 3.841,-2.242L3.841,0.113C3.841,0.19 3.773,0.255 3.696,0.255L3.499,0.255C3.421,0.255 3.357,0.19 3.357,0.113L3.357,-2.242C3.357,-3.257 2.882,-3.783 2.045,-3.783C1.144,-3.783 0.517,-3.079 0.472,-3.024L0.472,0.113C0.472,0.2 0.43,0.255 0.33,0.255L0.12,0.255C0.045,0.255 0,0.19 0,0.113L0,-4.003Z" style="fill-rule:nonzero;"/>
    </g>
    <g transform="matrix(4.16667,0,0,4.16667,195.917,123.648)">
        <path d="M0,-1.208C0,-1.286 0.065,-1.35 0.142,-1.35L0.339,-1.35C0.417,-1.35 0.485,-1.286 0.485,-1.208L0.485,2.908C0.485,2.995 0.439,3.05 0.339,3.05L0.12,3.05C0.042,3.05 0,2.985 0,2.908L0,-1.208ZM-0.132,-3.874C-0.132,-4.08 0.032,-4.258 0.243,-4.258C0.453,-4.258 0.617,-4.08 0.617,-3.874C0.617,-3.673 0.453,-3.508 0.243,-3.508C0.032,-3.508 -0.132,-3.673 -0.132,-3.874" style="fill-rule:nonzero;"/>
    </g>
    <g transform="matrix(4.16667,0,0,4.16667,213.109,120.253)">
        <path d="M0,3.325L0.11,3.151C0.142,3.096 0.229,3.073 0.307,3.138C0.417,3.225 0.869,3.568 1.483,3.568C2.113,3.568 2.539,3.216 2.539,2.786C2.539,2.282 2.045,2.072 1.308,1.797C0.526,1.519 -0.045,1.18 -0.045,0.498C-0.045,0.013 0.384,-0.649 1.396,-0.649C1.98,-0.649 2.42,-0.439 2.64,-0.297C2.704,-0.251 2.727,-0.164 2.685,-0.087L2.617,0.036C2.575,0.111 2.484,0.133 2.41,0.091C2.31,0.023 1.871,-0.219 1.396,-0.219C0.704,-0.219 0.449,0.188 0.449,0.485C0.449,0.928 0.846,1.135 1.496,1.367C2.319,1.674 3.046,1.949 3.046,2.753C3.046,3.412 2.365,3.974 1.483,3.974C0.736,3.974 0.284,3.668 0.042,3.48C0,3.448 -0.036,3.38 0,3.325" style="fill-rule:nonzero;"/>
    </g>
    <g transform="matrix(4.16667,0,0,4.16667,259.618,123.648)">
        <path d="M0,-1.208C0,-1.286 0.065,-1.35 0.142,-1.35L0.339,-1.35C0.417,-1.35 0.485,-1.286 0.485,-1.208L0.485,2.908C0.485,2.995 0.439,3.05 0.339,3.05L0.12,3.05C0.042,3.05 0,2.985 0,2.908L0,-1.208ZM-0.132,-3.874C-0.132,-4.08 0.032,-4.258 0.242,-4.258C0.453,-4.258 0.617,-4.08 0.617,-3.874C0.617,-3.673 0.453,-3.508 0.242,-3.508C0.032,-3.508 -0.132,-3.673 -0.132,-3.874" style="fill-rule:nonzero;"/>
    </g>
    <g transform="matrix(4.16667,0,0,4.16667,277.859,135.294)">
        <path d="M0,-4.003C0,-4.081 0.064,-4.145 0.155,-4.145L0.265,-4.145C0.339,-4.145 0.384,-4.103 0.394,-4.035L0.439,-3.564C0.582,-3.719 1.189,-4.258 2.067,-4.258C3.302,-4.258 3.841,-3.477 3.841,-2.242L3.841,0.113C3.841,0.19 3.773,0.255 3.696,0.255L3.499,0.255C3.421,0.255 3.356,0.19 3.356,0.113L3.356,-2.242C3.356,-3.257 2.882,-3.783 2.045,-3.783C1.144,-3.783 0.517,-3.079 0.472,-3.024L0.472,0.113C0.472,0.2 0.43,0.255 0.33,0.255L0.12,0.255C0.045,0.255 0,0.19 0,0.113L0,-4.003Z" style="fill-rule:nonzero;"/>
    </g>
    <g transform="matrix(4.16667,0,0,4.16667,336.9,119.433)">
        <path d="M0,3.719C0.969,3.719 1.729,2.895 1.729,1.848C1.729,0.837 0.969,0.01 0,0.01C-0.979,0.01 -1.738,0.837 -1.738,1.848C-1.738,2.895 -0.979,3.719 0,3.719M0,-0.452C1.234,-0.452 2.213,0.595 2.213,1.848C2.213,3.137 1.234,4.171 0,4.171C-1.244,4.171 -2.209,3.137 -2.209,1.848C-2.209,0.595 -1.244,-0.452 0,-0.452" style="fill-rule:nonzero;"/>
    </g>
    <g transform="matrix(4.16667,0,0,4.16667,360.755,136.223)">
        <path d="M0,-4.226C0,-4.304 0.068,-4.368 0.146,-4.368L0.343,-4.368C0.42,-4.368 0.484,-4.304 0.484,-4.226L0.484,-1.861C0.484,-0.837 0.96,-0.32 1.796,-0.32C2.707,-0.32 3.215,-1.034 3.247,-1.089L3.247,-4.226C3.247,-4.313 3.302,-4.368 3.393,-4.368L3.59,-4.368C3.667,-4.368 3.731,-4.304 3.731,-4.226L3.731,-0.11C3.731,-0.033 3.667,0.032 3.59,0.032L3.457,0.032C3.37,0.032 3.338,-0.033 3.324,-0.101L3.282,-0.53C3.16,-0.375 2.633,0.142 1.761,0.142C0.53,0.142 0,-0.617 0,-1.861L0,-4.226Z" style="fill-rule:nonzero;"/>
    </g>
    <g transform="matrix(4.16667,0,0,4.16667,392.578,135.294)">
        <path d="M0,-4.003C0,-4.081 0.064,-4.145 0.142,-4.145L0.274,-4.145C0.339,-4.145 0.395,-4.103 0.407,-4.026L0.452,-3.573C0.562,-3.729 1.001,-4.258 1.825,-4.258C2.178,-4.258 2.42,-4.158 2.507,-4.126C2.607,-4.09 2.662,-4.016 2.63,-3.925L2.543,-3.706C2.507,-3.628 2.442,-3.619 2.365,-3.651C2.31,-3.673 2.09,-3.783 1.793,-3.783C0.934,-3.783 0.517,-3.092 0.484,-3.024L0.484,0.113C0.484,0.2 0.439,0.255 0.339,0.255L0.119,0.255C0.045,0.255 0,0.19 0,0.113L0,-4.003Z" style="fill-rule:nonzero;"/>
    </g>
    <g transform="matrix(4.16667,0,0,4.16667,435.925,135.294)">
        <path d="M0,-4.003C0,-4.081 0.064,-4.145 0.155,-4.145L0.265,-4.145C0.339,-4.145 0.384,-4.103 0.394,-4.035L0.439,-3.564C0.581,-3.719 1.188,-4.258 2.067,-4.258C3.302,-4.258 3.841,-3.477 3.841,-2.242L3.841,0.113C3.841,0.19 3.773,0.255 3.695,0.255L3.499,0.255C3.421,0.255 3.356,0.19 3.356,0.113L3.356,-2.242C3.356,-3.257 2.882,-3.783 2.045,-3.783C1.144,-3.783 0.517,-3.079 0.472,-3.024L0.472,0.113C0.472,0.2 0.43,0.255 0.329,0.255L0.119,0.255C0.045,0.255 0,0.19 0,0.113L0,-4.003Z" style="fill-rule:nonzero;"/>
    </g>
    <g transform="matrix(4.16667,0,0,4.16667,472.701,119.344)">
        <path d="M0,3.763C0.672,3.763 1.254,3.356 1.464,3.081L1.464,1.87C1.321,1.805 0.882,1.64 0.353,1.64C-0.484,1.64 -1.044,2.07 -1.044,2.72C-1.044,3.356 -0.604,3.763 0,3.763M0.353,1.243C0.859,1.243 1.344,1.398 1.464,1.44C1.464,0.474 1.363,-0.01 0.494,-0.01C-0.229,-0.01 -0.727,0.255 -0.824,0.287C-0.914,0.319 -0.969,0.274 -0.988,0.2L-1.044,0.067C-1.079,-0.033 -1.034,-0.078 -0.979,-0.097C-0.946,-0.12 -0.385,-0.43 0.53,-0.43C1.871,-0.43 1.926,0.374 1.926,1.498L1.926,3.941C1.926,4.018 1.861,4.083 1.783,4.083L1.651,4.083C1.573,4.083 1.541,4.038 1.519,3.964L1.477,3.566C1.189,3.831 0.649,4.193 -0.055,4.193C-0.869,4.193 -1.496,3.631 -1.496,2.729C-1.496,1.883 -0.805,1.243 0.353,1.243" style="fill-rule:nonzero;"/>
    </g>
    <g transform="matrix(4.16667,0,0,4.16667,497.592,129.395)">
        <path d="M0,-2.303L-0.517,-2.303C-0.627,-2.303 -0.649,-2.358 -0.649,-2.445L-0.649,-2.619C-0.649,-2.697 -0.595,-2.729 -0.517,-2.729L0,-2.729L0,-3.931C0,-4.018 0.064,-4.074 0.143,-4.074L0.33,-4.083C0.407,-4.083 0.472,-4.018 0.472,-3.941L0.472,-2.729L2.003,-2.729C2.091,-2.729 2.146,-2.665 2.146,-2.587L2.146,-2.445C2.146,-2.358 2.091,-2.303 2.003,-2.303L0.472,-2.303L0.472,0.505C0.472,1.022 0.526,1.309 1.044,1.309C1.432,1.309 1.903,1.099 2.045,1.012C2.146,0.957 2.19,0.999 2.223,1.054L2.301,1.186C2.343,1.264 2.333,1.328 2.265,1.374C2.101,1.506 1.619,1.78 0.988,1.78C0.078,1.78 0,1.241 0,0.537L0,-2.303Z" style="fill-rule:nonzero;"/>
    </g>
    <g transform="matrix(4.16667,0,0,4.16667,520.895,136.223)">
        <path d="M0,-4.226C0,-4.304 0.067,-4.368 0.146,-4.368L0.343,-4.368C0.42,-4.368 0.484,-4.304 0.484,-4.226L0.484,-1.861C0.484,-0.837 0.959,-0.32 1.796,-0.32C2.707,-0.32 3.215,-1.034 3.247,-1.089L3.247,-4.226C3.247,-4.313 3.302,-4.368 3.393,-4.368L3.589,-4.368C3.667,-4.368 3.731,-4.304 3.731,-4.226L3.731,-0.11C3.731,-0.033 3.667,0.032 3.589,0.032L3.457,0.032C3.369,0.032 3.337,-0.033 3.324,-0.101L3.282,-0.53C3.159,-0.375 2.633,0.142 1.761,0.142C0.529,0.142 0,-0.617 0,-1.861L0,-4.226Z" style="fill-rule:nonzero;"/>
    </g>
    <g transform="matrix(4.16667,0,0,4.16667,552.718,135.294)">
        <path d="M0,-4.003C0,-4.081 0.064,-4.145 0.142,-4.145L0.274,-4.145C0.339,-4.145 0.394,-4.103 0.407,-4.026L0.452,-3.573C0.562,-3.729 1.001,-4.258 1.825,-4.258C2.178,-4.258 2.42,-4.158 2.507,-4.126C2.607,-4.09 2.662,-4.016 2.63,-3.925L2.542,-3.706C2.507,-3.628 2.442,-3.619 2.364,-3.651C2.31,-3.673 2.09,-3.783 1.793,-3.783C0.934,-3.783 0.517,-3.092 0.484,-3.024L0.484,0.113C0.484,0.2 0.439,0.255 0.339,0.255L0.119,0.255C0.045,0.255 0,0.19 0,0.113L0,-4.003Z" style="fill-rule:nonzero;"/>
    </g>
    <g transform="matrix(4.16667,0,0,4.16667,590.707,128.281)">
        <path d="M0,-0.527C0,-1.386 -0.518,-2.133 -1.509,-2.133C-2.479,-2.133 -3.128,-1.428 -3.183,-0.527L0,-0.527ZM-1.509,-2.575C-0.353,-2.575 0.484,-1.726 0.484,-0.559C0.484,-0.385 0.484,-0.13 0.319,-0.13L-3.192,-0.13C-3.146,0.817 -2.465,1.609 -1.477,1.609C-0.892,1.609 -0.439,1.376 -0.178,1.202C-0.078,1.134 -0.032,1.124 0.022,1.202L0.132,1.353C0.165,1.398 0.151,1.466 0.087,1.531C-0.133,1.751 -0.827,2.048 -1.509,2.048C-2.85,2.048 -3.677,1.014 -3.677,-0.275C-3.677,-1.528 -2.85,-2.575 -1.509,-2.575" style="fill-rule:nonzero;"/>
    </g>
    <g transform="matrix(4.16667,0,0,4.16667,42.2267,0.00166667)">
        <path d="M0,21.553L-2.013,21.553L-6.019,10.012L-5.757,9.628L-2.342,9.628L-2.342,1.694L-7.26,1.694L-7.26,21.553L-9.172,21.553L-9.172,0L-1.958,0C-1.505,0 -1.141,0.143 -0.856,0.427C-0.572,0.711 -0.426,1.079 -0.426,1.529L-0.426,9.709C-0.426,10.746 -1.125,11.266 -2.52,11.266C-2.659,11.266 -2.862,11.26 -3.127,11.243C-3.392,11.231 -3.586,11.224 -3.706,11.224C-2.465,14.658 -1.231,18.103 0,21.553" style="fill:rgb(32,48,55);fill-rule:nonzero;"/>
    </g>
    <g transform="matrix(4.16667,0,0,4.16667,-392.973,-493.438)">
        <path d="M112.809,128.109L108.868,128.109L108.868,132.144L112.809,132.144L112.809,128.109ZM114.583,138.421C114.583,139.458 114.069,139.978 113.042,139.978L108.635,139.978C107.607,139.978 107.094,139.458 107.094,138.421L107.094,128.134C107.094,127.098 107.607,126.58 108.635,126.58L113.042,126.58C114.069,126.58 114.583,127.098 114.583,128.134L114.583,132.955L113.966,133.601L108.868,133.601L108.868,138.45L112.809,138.45L112.809,135.998L114.583,135.998L114.583,138.421Z" style="fill:rgb(32,48,55);fill-rule:nonzero;"/>
    </g>
    <g transform="matrix(4.16667,0,0,4.16667,121.233,41.2767)">
        <path d="M0,9.98L0,5.244L-4.09,5.244L-4.09,10.064L0,9.98ZM1.777,11.647L-0.026,11.647L-0.026,11.275C-0.753,11.376 -1.477,11.473 -2.203,11.563C-3.102,11.676 -3.822,11.731 -4.365,11.731C-5.366,11.731 -5.867,11.233 -5.867,10.242L-5.867,5.354C-5.867,4.326 -5.347,3.813 -4.31,3.813L0,3.813L0,-0.223L-3.938,-0.223L-3.938,2.062L-5.715,2.062L-5.715,-0.197C-5.715,-1.234 -5.202,-1.751 -4.171,-1.751L0.236,-1.751C1.263,-1.751 1.777,-1.234 1.777,-0.197L1.777,11.647Z" style="fill:rgb(32,48,55);fill-rule:nonzero;"/>
    </g>
    <g transform="matrix(-4.16667,0,0,4.16667,683.715,-527.417)">
        <rect x="128.301" y="126.58" width="1.803" height="21.553" style="fill:rgb(32,48,55);"/>
    </g>
    <g transform="matrix(4.16667,0,0,4.16667,215.517,0.00166667)">
        <path d="M0,21.553L-7.079,21.553L-7.079,0L-0.084,0L-0.084,1.694L-5.166,1.694L-5.166,9.738L-0.536,9.738L-0.536,11.46L-5.166,11.46L-5.166,19.86L0,19.86L0,21.553Z" style="fill:rgb(32,48,55);fill-rule:nonzero;"/>
    </g>
    <g transform="matrix(4.16667,0,0,4.16667,257.115,40.4679)">
        <path d="M0,10.284C0,11.321 -0.517,11.841 -1.554,11.841L-5.757,11.841C-6.794,11.841 -7.312,11.321 -7.312,10.284L-7.312,7.241L-5.509,7.241L-5.509,10.258L-1.803,10.258L-1.803,7.586L-6.598,3.661C-7.056,3.292 -7.286,2.818 -7.286,2.23L-7.286,-0.003C-7.286,-1.04 -6.766,-1.557 -5.729,-1.557L-1.583,-1.557C-0.546,-1.557 -0.026,-1.04 -0.026,-0.003L-0.026,2.669L-1.803,2.669L-1.803,0.026L-5.509,0.026L-5.509,2.365L-0.675,6.291C-0.223,6.649 0,7.137 0,7.751L0,10.284Z" style="fill:rgb(32,48,55);fill-rule:nonzero;"/>
    </g>
    <g transform="matrix(4.16667,0,0,4.16667,289.315,16.5892)">
        <path d="M0,17.572L-2.604,17.572C-3.632,17.572 -4.148,17.052 -4.148,16.015L-4.148,5.783L-5.757,5.783L-5.757,4.174L-4.148,4.174L-4.148,0L-2.343,0L-2.343,4.174L0,4.174L0,5.783L-2.343,5.783L-2.343,15.96L0,15.96L0,17.572Z" style="fill:rgb(32,48,55);fill-rule:nonzero;"/>
    </g>
    <g transform="matrix(4.16667,0,0,4.16667,323.21,41.2767)">
        <path d="M0,9.98L0,5.244L-4.09,5.244L-4.09,10.064L0,9.98ZM1.777,11.647L-0.026,11.647L-0.026,11.275C-0.752,11.376 -1.477,11.473 -2.203,11.563C-3.102,11.676 -3.822,11.731 -4.365,11.731C-5.366,11.731 -5.867,11.233 -5.867,10.242L-5.867,5.354C-5.867,4.326 -5.347,3.813 -4.31,3.813L0,3.813L0,-0.223L-3.938,-0.223L-3.938,2.062L-5.715,2.062L-5.715,-0.197C-5.715,-1.234 -5.202,-1.751 -4.171,-1.751L0.236,-1.751C1.263,-1.751 1.777,-1.234 1.777,-0.197L1.777,11.647Z" style="fill:rgb(32,48,55);fill-rule:nonzero;"/>
    </g>
    <g transform="matrix(4.16667,0,0,4.16667,363.217,16.5892)">
        <path d="M0,17.572L-2.604,17.572C-3.631,17.572 -4.148,17.052 -4.148,16.015L-4.148,5.783L-5.757,5.783L-5.757,4.174L-4.148,4.174L-4.148,0L-2.342,0L-2.342,4.174L0,4.174L0,5.783L-2.342,5.783L-2.342,15.96L0,15.96L0,17.572Z" style="fill:rgb(32,48,55);fill-rule:nonzero;"/>
    </g>
    <g transform="matrix(4.16667,0,0,4.16667,-392.973,-493.438)">
        <path d="M189.543,128.109L185.602,128.109L185.602,132.144L189.543,132.144L189.543,128.109ZM191.317,138.421C191.317,139.458 190.804,139.978 189.776,139.978L185.369,139.978C184.342,139.978 183.828,139.458 183.828,138.421L183.828,128.134C183.828,127.098 184.342,126.58 185.369,126.58L189.776,126.58C190.804,126.58 191.317,127.098 191.317,128.134L191.317,132.955L190.7,133.601L185.602,133.601L185.602,138.45L189.543,138.45L189.543,135.998L191.317,135.998L191.317,138.421Z" style="fill:rgb(32,48,55);fill-rule:nonzero;"/>
    </g>
    <g transform="matrix(4.16667,0,0,4.16667,476.701,6.37125)">
        <path d="M0,18.496C0,18.945 -0.146,19.313 -0.439,19.598C-0.733,19.882 -1.105,20.024 -1.555,20.024L-7.104,20.024C-7.554,20.024 -7.922,19.882 -8.207,19.598C-8.491,19.313 -8.633,18.945 -8.633,18.496L-8.633,0C-8.633,-0.449 -8.491,-0.817 -8.207,-1.102C-7.922,-1.386 -7.554,-1.528 -7.104,-1.528L-1.555,-1.528C-1.105,-1.528 -0.733,-1.386 -0.439,-1.102C-0.146,-0.817 0,-0.449 0,0L0,5.014L-1.926,5.014L-1.926,0.165L-6.721,0.165L-6.721,18.331L-1.926,18.331L-1.926,13.03L0,13.03L0,18.496Z" style="fill:rgb(32,48,55);fill-rule:nonzero;"/>
    </g>
    <g transform="matrix(4.16667,0,0,4.16667,513.896,41.2767)">
        <path d="M0,9.98L0,5.244L-4.091,5.244L-4.091,10.064L0,9.98ZM1.776,11.647L-0.026,11.647L-0.026,11.275C-0.753,11.376 -1.477,11.473 -2.204,11.563C-3.102,11.676 -3.822,11.731 -4.365,11.731C-5.367,11.731 -5.867,11.233 -5.867,10.242L-5.867,5.354C-5.867,4.326 -5.348,3.813 -4.311,3.813L0,3.813L0,-0.223L-3.938,-0.223L-3.938,2.062L-5.716,2.062L-5.716,-0.197C-5.716,-1.234 -5.202,-1.751 -4.172,-1.751L0.235,-1.751C1.263,-1.751 1.776,-1.234 1.776,-0.197L1.776,11.647Z" style="fill:rgb(32,48,55);fill-rule:nonzero;"/>
    </g>
    <g transform="matrix(4.16667,0,0,4.16667,563.001,71.0925)">
        <path d="M0,-4.5L-1.803,-4.5L-1.803,-7.269L-5.176,-7.159L-5.176,4.491L-7.007,4.491L-7.007,-8.907L-5.176,-8.907L-5.176,-8.535C-4.571,-8.629 -3.961,-8.726 -3.347,-8.826C-2.61,-8.936 -2,-8.991 -1.515,-8.991C-0.504,-8.991 0,-8.49 0,-7.488L0,-4.5Z" style="fill:rgb(32,48,55);fill-rule:nonzero;"/>
    </g>
    <g transform="matrix(4.16667,0,0,4.16667,-392.973,-493.438)">
        <path d="M237.481,128.109L233.54,128.109L233.54,132.144L237.481,132.144L237.481,128.109ZM239.256,138.421C239.256,139.458 238.742,139.978 237.715,139.978L233.308,139.978C232.28,139.978 231.767,139.458 231.767,138.421L231.767,128.134C231.767,127.098 232.28,126.58 233.308,126.58L237.715,126.58C238.742,126.58 239.256,127.098 239.256,128.134L239.256,132.955L238.639,133.601L233.54,133.601L233.54,138.45L237.481,138.45L237.481,135.998L239.256,135.998L239.256,138.421Z" style="fill:rgb(32,48,55);fill-rule:nonzero;"/>
    </g>
</svg>
